%TF.GenerationSoftware,KiCad,Pcbnew,8.0.4*%
%TF.CreationDate,2024-09-01T19:46:59+02:00*%
%TF.ProjectId,bombopad,626f6d62-6f70-4616-942e-6b696361645f,v1.0.0*%
%TF.SameCoordinates,Original*%
%TF.FileFunction,Soldermask,Bot*%
%TF.FilePolarity,Negative*%
%FSLAX46Y46*%
G04 Gerber Fmt 4.6, Leading zero omitted, Abs format (unit mm)*
G04 Created by KiCad (PCBNEW 8.0.4) date 2024-09-01 19:46:59*
%MOMM*%
%LPD*%
G01*
G04 APERTURE LIST*
G04 Aperture macros list*
%AMRoundRect*
0 Rectangle with rounded corners*
0 $1 Rounding radius*
0 $2 $3 $4 $5 $6 $7 $8 $9 X,Y pos of 4 corners*
0 Add a 4 corners polygon primitive as box body*
4,1,4,$2,$3,$4,$5,$6,$7,$8,$9,$2,$3,0*
0 Add four circle primitives for the rounded corners*
1,1,$1+$1,$2,$3*
1,1,$1+$1,$4,$5*
1,1,$1+$1,$6,$7*
1,1,$1+$1,$8,$9*
0 Add four rect primitives between the rounded corners*
20,1,$1+$1,$2,$3,$4,$5,0*
20,1,$1+$1,$4,$5,$6,$7,0*
20,1,$1+$1,$6,$7,$8,$9,0*
20,1,$1+$1,$8,$9,$2,$3,0*%
G04 Aperture macros list end*
%ADD10RoundRect,0.200000X-0.450000X0.200000X-0.450000X-0.200000X0.450000X-0.200000X0.450000X0.200000X0*%
%ADD11O,1.300000X0.800000*%
%ADD12R,2.000000X3.200000*%
%ADD13C,1.500000*%
%ADD14C,2.000000*%
%ADD15C,1.600000*%
%ADD16R,1.778000X1.778000*%
%ADD17R,1.200000X0.900000*%
%ADD18C,1.905000*%
%ADD19C,1.701800*%
%ADD20C,3.000000*%
%ADD21C,3.429000*%
%ADD22R,2.600000X2.600000*%
%ADD23RoundRect,0.250000X0.450000X0.450000X-0.450000X0.450000X-0.450000X-0.450000X0.450000X-0.450000X0*%
%ADD24C,1.400000*%
%ADD25R,1.752600X1.752600*%
%ADD26C,1.752600*%
%ADD27R,1.700000X1.700000*%
%ADD28O,1.700000X1.700000*%
%ADD29RoundRect,0.200000X0.450000X-0.200000X0.450000X0.200000X-0.450000X0.200000X-0.450000X-0.200000X0*%
G04 APERTURE END LIST*
D10*
%TO.C,J2*%
X41128000Y-26309000D03*
D11*
X41128000Y-27559000D03*
X41128000Y-28809000D03*
%TD*%
D12*
%TO.C,ROT2*%
X82538000Y-69462000D03*
X93738000Y-69462000D03*
D13*
X85638000Y-62462000D03*
X90638000Y-62462000D03*
D14*
X85638000Y-76962000D03*
X90638000Y-76962000D03*
X88138000Y-76962000D03*
%TD*%
D13*
%TO.C,ROL1*%
X94428000Y-55567000D03*
D15*
X84318000Y-55567000D03*
X86858000Y-55567000D03*
X89398000Y-55567000D03*
X91938000Y-55567000D03*
X81928000Y-56792000D03*
X81928000Y-54942000D03*
%TD*%
D16*
%TO.C,D5*%
X59628000Y-76752000D03*
D17*
X59628000Y-74592000D03*
X59628000Y-71292000D03*
D18*
X59628000Y-69132000D03*
%TD*%
D16*
%TO.C,D4*%
X59628000Y-95752000D03*
D17*
X59628000Y-93592000D03*
X59628000Y-90292000D03*
D18*
X59628000Y-88132000D03*
%TD*%
D19*
%TO.C,S5*%
X44628000Y-69442000D03*
D20*
X50128000Y-63492000D03*
D21*
X50128000Y-69442000D03*
D20*
X55128000Y-65692000D03*
D19*
X55628000Y-69442000D03*
D22*
X46853000Y-63492000D03*
X58403000Y-65692000D03*
%TD*%
D16*
%TO.C,D8*%
X78628000Y-76752000D03*
D17*
X78628000Y-74592000D03*
X78628000Y-71292000D03*
D18*
X78628000Y-69132000D03*
%TD*%
D19*
%TO.C,S4*%
X44628000Y-88442000D03*
D20*
X50128000Y-82492000D03*
D21*
X50128000Y-88442000D03*
D20*
X55128000Y-84692000D03*
D19*
X55628000Y-88442000D03*
D22*
X46853000Y-82492000D03*
X58403000Y-84692000D03*
%TD*%
D16*
%TO.C,D10*%
X97628000Y-95752000D03*
D17*
X97628000Y-93592000D03*
X97628000Y-90292000D03*
D18*
X97628000Y-88132000D03*
%TD*%
D16*
%TO.C,D6*%
X59628000Y-57752000D03*
D17*
X59628000Y-55592000D03*
X59628000Y-52292000D03*
D18*
X59628000Y-50132000D03*
%TD*%
D19*
%TO.C,S6*%
X44628000Y-50442000D03*
D20*
X50128000Y-44492000D03*
D21*
X50128000Y-50442000D03*
D20*
X55128000Y-46692000D03*
D19*
X55628000Y-50442000D03*
D22*
X46853000Y-44492000D03*
X58403000Y-46692000D03*
%TD*%
D16*
%TO.C,D7*%
X78628000Y-95752000D03*
D17*
X78628000Y-93592000D03*
X78628000Y-90292000D03*
D18*
X78628000Y-88132000D03*
%TD*%
D19*
%TO.C,S3*%
X25628000Y-50442000D03*
D20*
X31128000Y-44492000D03*
D21*
X31128000Y-50442000D03*
D20*
X36128000Y-46692000D03*
D19*
X36628000Y-50442000D03*
D22*
X27853000Y-44492000D03*
X39403000Y-46692000D03*
%TD*%
D16*
%TO.C,D9*%
X78628000Y-57752000D03*
D17*
X78628000Y-55592000D03*
X78628000Y-52292000D03*
D18*
X78628000Y-50132000D03*
%TD*%
D19*
%TO.C,S2*%
X25628000Y-69442000D03*
D20*
X31128000Y-63492000D03*
D21*
X31128000Y-69442000D03*
D20*
X36128000Y-65692000D03*
D19*
X36628000Y-69442000D03*
D22*
X27853000Y-63492000D03*
X39403000Y-65692000D03*
%TD*%
D19*
%TO.C,S7*%
X63628000Y-88442000D03*
D20*
X69128000Y-82492000D03*
D21*
X69128000Y-88442000D03*
D20*
X74128000Y-84692000D03*
D19*
X74628000Y-88442000D03*
D22*
X65853000Y-82492000D03*
X77403000Y-84692000D03*
%TD*%
D13*
%TO.C,ROL2*%
X94428000Y-74567000D03*
D15*
X84318000Y-74567000D03*
X86858000Y-74567000D03*
X89398000Y-74567000D03*
X91938000Y-74567000D03*
X81928000Y-75792000D03*
X81928000Y-73942000D03*
%TD*%
D16*
%TO.C,D1*%
X40628000Y-95752000D03*
D17*
X40628000Y-93592000D03*
X40628000Y-90292000D03*
D18*
X40628000Y-88132000D03*
%TD*%
D16*
%TO.C,D11*%
X97155000Y-74752000D03*
D17*
X97155000Y-72592000D03*
X97155000Y-69292000D03*
D18*
X97155000Y-67132000D03*
%TD*%
D12*
%TO.C,ROT1*%
X82538000Y-50462000D03*
X93738000Y-50462000D03*
D13*
X85638000Y-43462000D03*
X90638000Y-43462000D03*
D14*
X85638000Y-57962000D03*
X90638000Y-57962000D03*
X88138000Y-57962000D03*
%TD*%
D19*
%TO.C,S9*%
X63628000Y-50442000D03*
D20*
X69128000Y-44492000D03*
D21*
X69128000Y-50442000D03*
D20*
X74128000Y-46692000D03*
D19*
X74628000Y-50442000D03*
D22*
X65853000Y-44492000D03*
X77403000Y-46692000D03*
%TD*%
D23*
%TO.C,SW15*%
X28194000Y-21080000D03*
D24*
X25694000Y-21080000D03*
X23194000Y-21080000D03*
X23194000Y-17780000D03*
X25694000Y-17780000D03*
X28194000Y-17780000D03*
%TD*%
D19*
%TO.C,S10*%
X82628000Y-88442000D03*
D20*
X88128000Y-82492000D03*
D21*
X88128000Y-88442000D03*
D20*
X93128000Y-84692000D03*
D19*
X93628000Y-88442000D03*
D22*
X84853000Y-82492000D03*
X96403000Y-84692000D03*
%TD*%
D25*
%TO.C,MCU1*%
X97765000Y-20522000D03*
D26*
X95225000Y-20522000D03*
X92685000Y-20522000D03*
X90145000Y-20522000D03*
X87605000Y-20522000D03*
X85065000Y-20522000D03*
X82525000Y-20522000D03*
X79985000Y-20522000D03*
X77445000Y-20522000D03*
X74905000Y-20522000D03*
X72365000Y-20522000D03*
X69825000Y-20522000D03*
X97765000Y-35762000D03*
X95225000Y-35762000D03*
X92685000Y-35762000D03*
X90145000Y-35762000D03*
X87605000Y-35762000D03*
X85065000Y-35762000D03*
X82525000Y-35762000D03*
X79985000Y-35762000D03*
X77445000Y-35762000D03*
X74905000Y-35762000D03*
X72365000Y-35762000D03*
X69825000Y-35762000D03*
X74905000Y-33222000D03*
X74905000Y-30682000D03*
X74905000Y-28142000D03*
%TD*%
D19*
%TO.C,S8*%
X63628000Y-69442000D03*
D20*
X69128000Y-63492000D03*
D21*
X69128000Y-69442000D03*
D20*
X74128000Y-65692000D03*
D19*
X74628000Y-69442000D03*
D22*
X65853000Y-63492000D03*
X77403000Y-65692000D03*
%TD*%
D19*
%TO.C,S1*%
X25628000Y-88442000D03*
D20*
X31128000Y-82492000D03*
D21*
X31128000Y-88442000D03*
D20*
X36128000Y-84692000D03*
D19*
X36628000Y-88442000D03*
D22*
X27853000Y-82492000D03*
X39403000Y-84692000D03*
%TD*%
D27*
%TO.C,Nice!View1*%
X66795000Y-33222000D03*
D28*
X66795000Y-30682000D03*
X66795000Y-28142000D03*
X66795000Y-25602000D03*
X66795000Y-23062000D03*
%TD*%
D29*
%TO.C,J1*%
X46128000Y-28142000D03*
D11*
X46128000Y-26892000D03*
%TD*%
D16*
%TO.C,D3*%
X40628000Y-57752000D03*
D17*
X40628000Y-55592000D03*
X40628000Y-52292000D03*
D18*
X40628000Y-50132000D03*
%TD*%
D16*
%TO.C,D12*%
X97155000Y-55752000D03*
D17*
X97155000Y-53592000D03*
X97155000Y-50292000D03*
D18*
X97155000Y-48132000D03*
%TD*%
D16*
%TO.C,D2*%
X40628000Y-76752000D03*
D17*
X40628000Y-74592000D03*
X40628000Y-71292000D03*
D18*
X40628000Y-69132000D03*
%TD*%
M02*
