M48
; DRILL file {KiCad 8.0.4} date 2024-09-01T19:47:03+0200
; FORMAT={-:-/ absolute / inch / decimal}
; #@! TF.CreationDate,2024-09-01T19:47:03+02:00
; #@! TF.GenerationSoftware,Kicad,Pcbnew,8.0.4
; #@! TF.FileFunction,Plated,1,2,PTH
FMAT,2
INCH
; #@! TA.AperFunction,Plated,PTH,ComponentDrill
T1C0.0197
; #@! TA.AperFunction,Plated,PTH,ComponentDrill
T2C0.0354
; #@! TA.AperFunction,Plated,PTH,ComponentDrill
T3C0.0390
; #@! TA.AperFunction,Plated,PTH,ComponentDrill
T4C0.0394
; #@! TA.AperFunction,Plated,PTH,ComponentDrill
T5C0.0430
; #@! TA.AperFunction,Plated,PTH,ComponentDrill
T6C0.0591
%
G90
G05
T1
X1.6192Y-1.0358
X1.6192Y-1.085
X1.6192Y-1.1342
X1.8161Y-1.0587
X1.8161Y-1.108
T2
X0.9131Y-0.7
X0.9131Y-0.8299
X1.0116Y-0.7
X1.0116Y-0.8299
X1.11Y-0.7
X1.11Y-0.8299
X3.2255Y-2.1631
X3.2255Y-2.2359
X3.2255Y-2.9111
X3.2255Y-2.9839
X3.3196Y-2.1877
X3.3196Y-2.9357
X3.4196Y-2.1877
X3.4196Y-2.9357
X3.5196Y-2.1877
X3.5196Y-2.9357
X3.6196Y-2.1877
X3.6196Y-2.9357
T3
X1.5995Y-1.9737
X1.5995Y-2.2737
X1.5995Y-2.7217
X1.5995Y-3.0217
X1.5995Y-3.4698
X1.5995Y-3.7698
X2.3476Y-1.9737
X2.3476Y-2.2737
X2.3476Y-2.7217
X2.3476Y-3.0217
X2.3476Y-3.4698
X2.3476Y-3.7698
X3.0956Y-1.9737
X3.0956Y-2.2737
X3.0956Y-2.7217
X3.0956Y-3.0217
X3.0956Y-3.4698
X3.0956Y-3.7698
X3.825Y-1.895
X3.825Y-2.195
X3.825Y-2.643
X3.825Y-2.943
X3.8436Y-3.4698
X3.8436Y-3.7698
T4
X2.6297Y-0.908
X2.6297Y-1.008
X2.6297Y-1.108
X2.6297Y-1.208
X2.6297Y-1.308
X3.3716Y-1.7111
X3.3716Y-2.282
X3.3716Y-2.4591
X3.3716Y-3.03
X3.47Y-2.282
X3.47Y-3.03
X3.5684Y-1.7111
X3.5684Y-2.282
X3.5684Y-2.4591
X3.5684Y-3.03
T5
X2.749Y-0.808
X2.749Y-1.408
X2.849Y-0.808
X2.849Y-1.408
X2.949Y-0.808
X2.949Y-1.108
X2.949Y-1.208
X2.949Y-1.308
X2.949Y-1.408
X3.049Y-0.808
X3.049Y-1.408
X3.149Y-0.808
X3.149Y-1.408
X3.249Y-0.808
X3.249Y-1.408
X3.349Y-0.808
X3.349Y-1.408
X3.449Y-0.808
X3.449Y-1.408
X3.549Y-0.808
X3.549Y-1.408
X3.649Y-0.808
X3.649Y-1.408
X3.749Y-0.808
X3.749Y-1.408
X3.849Y-0.808
X3.849Y-1.408
T6
G00X3.2495Y-2.0123
M15
G01X3.2495Y-1.9611
M16
G05
G00X3.2495Y-2.7603
M15
G01X3.2495Y-2.7091
M16
G05
G00X3.6905Y-2.0123
M15
G01X3.6905Y-1.9611
M16
G05
G00X3.6905Y-2.7603
M15
G01X3.6905Y-2.7091
M16
G05
M30
