%TF.GenerationSoftware,KiCad,Pcbnew,8.0.4*%
%TF.CreationDate,2024-09-01T19:46:58+02:00*%
%TF.ProjectId,bombopad,626f6d62-6f70-4616-942e-6b696361645f,v1.0.0*%
%TF.SameCoordinates,Original*%
%TF.FileFunction,Paste,Bot*%
%TF.FilePolarity,Positive*%
%FSLAX46Y46*%
G04 Gerber Fmt 4.6, Leading zero omitted, Abs format (unit mm)*
G04 Created by KiCad (PCBNEW 8.0.4) date 2024-09-01 19:46:58*
%MOMM*%
%LPD*%
G01*
G04 APERTURE LIST*
%ADD10R,1.200000X0.900000*%
%ADD11R,2.600000X2.600000*%
G04 APERTURE END LIST*
D10*
%TO.C,D5*%
X59628000Y-74592000D03*
X59628000Y-71292000D03*
%TD*%
%TO.C,D4*%
X59628000Y-93592000D03*
X59628000Y-90292000D03*
%TD*%
D11*
%TO.C,S5*%
X46853000Y-63492000D03*
X58403000Y-65692000D03*
%TD*%
D10*
%TO.C,D8*%
X78628000Y-74592000D03*
X78628000Y-71292000D03*
%TD*%
D11*
%TO.C,S4*%
X46853000Y-82492000D03*
X58403000Y-84692000D03*
%TD*%
D10*
%TO.C,D10*%
X97628000Y-93592000D03*
X97628000Y-90292000D03*
%TD*%
%TO.C,D6*%
X59628000Y-55592000D03*
X59628000Y-52292000D03*
%TD*%
D11*
%TO.C,S6*%
X46853000Y-44492000D03*
X58403000Y-46692000D03*
%TD*%
D10*
%TO.C,D7*%
X78628000Y-93592000D03*
X78628000Y-90292000D03*
%TD*%
D11*
%TO.C,S3*%
X27853000Y-44492000D03*
X39403000Y-46692000D03*
%TD*%
D10*
%TO.C,D9*%
X78628000Y-55592000D03*
X78628000Y-52292000D03*
%TD*%
D11*
%TO.C,S2*%
X27853000Y-63492000D03*
X39403000Y-65692000D03*
%TD*%
%TO.C,S7*%
X65853000Y-82492000D03*
X77403000Y-84692000D03*
%TD*%
D10*
%TO.C,D1*%
X40628000Y-93592000D03*
X40628000Y-90292000D03*
%TD*%
%TO.C,D11*%
X97155000Y-72592000D03*
X97155000Y-69292000D03*
%TD*%
D11*
%TO.C,S9*%
X65853000Y-44492000D03*
X77403000Y-46692000D03*
%TD*%
%TO.C,S10*%
X84853000Y-82492000D03*
X96403000Y-84692000D03*
%TD*%
%TO.C,S8*%
X65853000Y-63492000D03*
X77403000Y-65692000D03*
%TD*%
%TO.C,S1*%
X27853000Y-82492000D03*
X39403000Y-84692000D03*
%TD*%
D10*
%TO.C,D3*%
X40628000Y-55592000D03*
X40628000Y-52292000D03*
%TD*%
%TO.C,D12*%
X97155000Y-53592000D03*
X97155000Y-50292000D03*
%TD*%
%TO.C,D2*%
X40628000Y-74592000D03*
X40628000Y-71292000D03*
%TD*%
M02*
