M48
; DRILL file {KiCad 8.0.4} date 2024-09-01T19:47:03+0200
; FORMAT={-:-/ absolute / inch / decimal}
; #@! TF.CreationDate,2024-09-01T19:47:03+02:00
; #@! TF.GenerationSoftware,Kicad,Pcbnew,8.0.4
; #@! TF.FileFunction,NonPlated,1,2,NPTH
FMAT,2
INCH
; #@! TA.AperFunction,NonPlated,NPTH,ComponentDrill
T1C0.0591
; #@! TA.AperFunction,NonPlated,NPTH,ComponentDrill
T2C0.0670
; #@! TA.AperFunction,NonPlated,NPTH,ComponentDrill
T3C0.1181
; #@! TA.AperFunction,NonPlated,NPTH,ComponentDrill
T4C0.1350
%
G90
G05
T1
X3.7176Y-2.1877
X3.7176Y-2.9357
T2
X1.009Y-1.9859
X1.009Y-2.7339
X1.009Y-3.482
X1.442Y-1.9859
X1.442Y-2.7339
X1.442Y-3.482
X1.757Y-1.9859
X1.757Y-2.7339
X1.757Y-3.482
X2.1901Y-1.9859
X2.1901Y-2.7339
X2.1901Y-3.482
X2.505Y-1.9859
X2.505Y-2.7339
X2.505Y-3.482
X2.9381Y-1.9859
X2.9381Y-2.7339
X2.9381Y-3.482
X3.2531Y-3.482
X3.6861Y-3.482
T3
X1.2255Y-1.7517
X1.2255Y-2.4997
X1.2255Y-3.2477
X1.4224Y-1.8383
X1.4224Y-2.5863
X1.4224Y-3.3343
X1.9735Y-1.7517
X1.9735Y-2.4997
X1.9735Y-3.2477
X2.1704Y-1.8383
X2.1704Y-2.5863
X2.1704Y-3.3343
X2.7216Y-1.7517
X2.7216Y-2.4997
X2.7216Y-3.2477
X2.9184Y-1.8383
X2.9184Y-2.5863
X2.9184Y-3.3343
X3.4696Y-3.2477
X3.6665Y-3.3343
T4
X1.2255Y-1.9859
X1.2255Y-2.7339
X1.2255Y-3.482
X1.9735Y-1.9859
X1.9735Y-2.7339
X1.9735Y-3.482
X2.7216Y-1.9859
X2.7216Y-2.7339
X2.7216Y-3.482
X3.4696Y-3.482
M30
