%TF.GenerationSoftware,KiCad,Pcbnew,8.0.4*%
%TF.CreationDate,2024-09-01T19:46:58+02:00*%
%TF.ProjectId,bombopad,626f6d62-6f70-4616-942e-6b696361645f,v1.0.0*%
%TF.SameCoordinates,Original*%
%TF.FileFunction,Legend,Bot*%
%TF.FilePolarity,Positive*%
%FSLAX46Y46*%
G04 Gerber Fmt 4.6, Leading zero omitted, Abs format (unit mm)*
G04 Created by KiCad (PCBNEW 8.0.4) date 2024-09-01 19:46:58*
%MOMM*%
%LPD*%
G01*
G04 APERTURE LIST*
%ADD10C,0.300000*%
%ADD11C,0.100000*%
G04 APERTURE END LIST*
D10*
X50628174Y-19703731D02*
X50342460Y-19798969D01*
X50342460Y-19798969D02*
X50247222Y-19894207D01*
X50247222Y-19894207D02*
X50151984Y-20084683D01*
X50151984Y-20084683D02*
X50151984Y-20370397D01*
X50151984Y-20370397D02*
X50247222Y-20560873D01*
X50247222Y-20560873D02*
X50342460Y-20656112D01*
X50342460Y-20656112D02*
X50532936Y-20751350D01*
X50532936Y-20751350D02*
X51294841Y-20751350D01*
X51294841Y-20751350D02*
X51294841Y-18751350D01*
X51294841Y-18751350D02*
X50628174Y-18751350D01*
X50628174Y-18751350D02*
X50437698Y-18846588D01*
X50437698Y-18846588D02*
X50342460Y-18941826D01*
X50342460Y-18941826D02*
X50247222Y-19132302D01*
X50247222Y-19132302D02*
X50247222Y-19322778D01*
X50247222Y-19322778D02*
X50342460Y-19513254D01*
X50342460Y-19513254D02*
X50437698Y-19608492D01*
X50437698Y-19608492D02*
X50628174Y-19703731D01*
X50628174Y-19703731D02*
X51294841Y-19703731D01*
X49009127Y-20751350D02*
X49199603Y-20656112D01*
X49199603Y-20656112D02*
X49294841Y-20560873D01*
X49294841Y-20560873D02*
X49390079Y-20370397D01*
X49390079Y-20370397D02*
X49390079Y-19798969D01*
X49390079Y-19798969D02*
X49294841Y-19608492D01*
X49294841Y-19608492D02*
X49199603Y-19513254D01*
X49199603Y-19513254D02*
X49009127Y-19418016D01*
X49009127Y-19418016D02*
X48723412Y-19418016D01*
X48723412Y-19418016D02*
X48532936Y-19513254D01*
X48532936Y-19513254D02*
X48437698Y-19608492D01*
X48437698Y-19608492D02*
X48342460Y-19798969D01*
X48342460Y-19798969D02*
X48342460Y-20370397D01*
X48342460Y-20370397D02*
X48437698Y-20560873D01*
X48437698Y-20560873D02*
X48532936Y-20656112D01*
X48532936Y-20656112D02*
X48723412Y-20751350D01*
X48723412Y-20751350D02*
X49009127Y-20751350D01*
X47485317Y-20751350D02*
X47485317Y-19418016D01*
X47485317Y-19608492D02*
X47390079Y-19513254D01*
X47390079Y-19513254D02*
X47199603Y-19418016D01*
X47199603Y-19418016D02*
X46913888Y-19418016D01*
X46913888Y-19418016D02*
X46723412Y-19513254D01*
X46723412Y-19513254D02*
X46628174Y-19703731D01*
X46628174Y-19703731D02*
X46628174Y-20751350D01*
X46628174Y-19703731D02*
X46532936Y-19513254D01*
X46532936Y-19513254D02*
X46342460Y-19418016D01*
X46342460Y-19418016D02*
X46056746Y-19418016D01*
X46056746Y-19418016D02*
X45866269Y-19513254D01*
X45866269Y-19513254D02*
X45771031Y-19703731D01*
X45771031Y-19703731D02*
X45771031Y-20751350D01*
X44818650Y-20751350D02*
X44818650Y-18751350D01*
X44818650Y-19513254D02*
X44628174Y-19418016D01*
X44628174Y-19418016D02*
X44247221Y-19418016D01*
X44247221Y-19418016D02*
X44056745Y-19513254D01*
X44056745Y-19513254D02*
X43961507Y-19608492D01*
X43961507Y-19608492D02*
X43866269Y-19798969D01*
X43866269Y-19798969D02*
X43866269Y-20370397D01*
X43866269Y-20370397D02*
X43961507Y-20560873D01*
X43961507Y-20560873D02*
X44056745Y-20656112D01*
X44056745Y-20656112D02*
X44247221Y-20751350D01*
X44247221Y-20751350D02*
X44628174Y-20751350D01*
X44628174Y-20751350D02*
X44818650Y-20656112D01*
X42723412Y-20751350D02*
X42913888Y-20656112D01*
X42913888Y-20656112D02*
X43009126Y-20560873D01*
X43009126Y-20560873D02*
X43104364Y-20370397D01*
X43104364Y-20370397D02*
X43104364Y-19798969D01*
X43104364Y-19798969D02*
X43009126Y-19608492D01*
X43009126Y-19608492D02*
X42913888Y-19513254D01*
X42913888Y-19513254D02*
X42723412Y-19418016D01*
X42723412Y-19418016D02*
X42437697Y-19418016D01*
X42437697Y-19418016D02*
X42247221Y-19513254D01*
X42247221Y-19513254D02*
X42151983Y-19608492D01*
X42151983Y-19608492D02*
X42056745Y-19798969D01*
X42056745Y-19798969D02*
X42056745Y-20370397D01*
X42056745Y-20370397D02*
X42151983Y-20560873D01*
X42151983Y-20560873D02*
X42247221Y-20656112D01*
X42247221Y-20656112D02*
X42437697Y-20751350D01*
X42437697Y-20751350D02*
X42723412Y-20751350D01*
X41199602Y-20751350D02*
X41199602Y-18751350D01*
X41199602Y-18751350D02*
X40437697Y-18751350D01*
X40437697Y-18751350D02*
X40247221Y-18846588D01*
X40247221Y-18846588D02*
X40151983Y-18941826D01*
X40151983Y-18941826D02*
X40056745Y-19132302D01*
X40056745Y-19132302D02*
X40056745Y-19418016D01*
X40056745Y-19418016D02*
X40151983Y-19608492D01*
X40151983Y-19608492D02*
X40247221Y-19703731D01*
X40247221Y-19703731D02*
X40437697Y-19798969D01*
X40437697Y-19798969D02*
X41199602Y-19798969D01*
X38342459Y-20751350D02*
X38342459Y-19703731D01*
X38342459Y-19703731D02*
X38437697Y-19513254D01*
X38437697Y-19513254D02*
X38628173Y-19418016D01*
X38628173Y-19418016D02*
X39009126Y-19418016D01*
X39009126Y-19418016D02*
X39199602Y-19513254D01*
X38342459Y-20656112D02*
X38532935Y-20751350D01*
X38532935Y-20751350D02*
X39009126Y-20751350D01*
X39009126Y-20751350D02*
X39199602Y-20656112D01*
X39199602Y-20656112D02*
X39294840Y-20465635D01*
X39294840Y-20465635D02*
X39294840Y-20275159D01*
X39294840Y-20275159D02*
X39199602Y-20084683D01*
X39199602Y-20084683D02*
X39009126Y-19989445D01*
X39009126Y-19989445D02*
X38532935Y-19989445D01*
X38532935Y-19989445D02*
X38342459Y-19894207D01*
X36532935Y-20751350D02*
X36532935Y-18751350D01*
X36532935Y-20656112D02*
X36723411Y-20751350D01*
X36723411Y-20751350D02*
X37104364Y-20751350D01*
X37104364Y-20751350D02*
X37294840Y-20656112D01*
X37294840Y-20656112D02*
X37390078Y-20560873D01*
X37390078Y-20560873D02*
X37485316Y-20370397D01*
X37485316Y-20370397D02*
X37485316Y-19798969D01*
X37485316Y-19798969D02*
X37390078Y-19608492D01*
X37390078Y-19608492D02*
X37294840Y-19513254D01*
X37294840Y-19513254D02*
X37104364Y-19418016D01*
X37104364Y-19418016D02*
X36723411Y-19418016D01*
X36723411Y-19418016D02*
X36532935Y-19513254D01*
X48437697Y-22637904D02*
X47961507Y-23971238D01*
X47961507Y-23971238D02*
X47485316Y-22637904D01*
X46342459Y-21971238D02*
X46151982Y-21971238D01*
X46151982Y-21971238D02*
X45961506Y-22066476D01*
X45961506Y-22066476D02*
X45866268Y-22161714D01*
X45866268Y-22161714D02*
X45771030Y-22352190D01*
X45771030Y-22352190D02*
X45675792Y-22733142D01*
X45675792Y-22733142D02*
X45675792Y-23209333D01*
X45675792Y-23209333D02*
X45771030Y-23590285D01*
X45771030Y-23590285D02*
X45866268Y-23780761D01*
X45866268Y-23780761D02*
X45961506Y-23876000D01*
X45961506Y-23876000D02*
X46151982Y-23971238D01*
X46151982Y-23971238D02*
X46342459Y-23971238D01*
X46342459Y-23971238D02*
X46532935Y-23876000D01*
X46532935Y-23876000D02*
X46628173Y-23780761D01*
X46628173Y-23780761D02*
X46723411Y-23590285D01*
X46723411Y-23590285D02*
X46818649Y-23209333D01*
X46818649Y-23209333D02*
X46818649Y-22733142D01*
X46818649Y-22733142D02*
X46723411Y-22352190D01*
X46723411Y-22352190D02*
X46628173Y-22161714D01*
X46628173Y-22161714D02*
X46532935Y-22066476D01*
X46532935Y-22066476D02*
X46342459Y-21971238D01*
X44818649Y-23780761D02*
X44723411Y-23876000D01*
X44723411Y-23876000D02*
X44818649Y-23971238D01*
X44818649Y-23971238D02*
X44913887Y-23876000D01*
X44913887Y-23876000D02*
X44818649Y-23780761D01*
X44818649Y-23780761D02*
X44818649Y-23971238D01*
X44056744Y-21971238D02*
X42818649Y-21971238D01*
X42818649Y-21971238D02*
X43485316Y-22733142D01*
X43485316Y-22733142D02*
X43199601Y-22733142D01*
X43199601Y-22733142D02*
X43009125Y-22828380D01*
X43009125Y-22828380D02*
X42913887Y-22923619D01*
X42913887Y-22923619D02*
X42818649Y-23114095D01*
X42818649Y-23114095D02*
X42818649Y-23590285D01*
X42818649Y-23590285D02*
X42913887Y-23780761D01*
X42913887Y-23780761D02*
X43009125Y-23876000D01*
X43009125Y-23876000D02*
X43199601Y-23971238D01*
X43199601Y-23971238D02*
X43771030Y-23971238D01*
X43771030Y-23971238D02*
X43961506Y-23876000D01*
X43961506Y-23876000D02*
X44056744Y-23780761D01*
D11*
%TO.C,D5*%
X59228000Y-72692000D02*
X60028000Y-72692000D01*
X59628000Y-72692000D02*
X59628000Y-72192000D01*
X59628000Y-73292000D02*
X59078000Y-73292000D01*
X59628000Y-73292000D02*
X59228000Y-72692000D01*
X59628000Y-73292000D02*
X60178000Y-73292000D01*
X59628000Y-73692000D02*
X59628000Y-73292000D01*
X60028000Y-72692000D02*
X59628000Y-73292000D01*
%TO.C,D4*%
X59228000Y-91692000D02*
X60028000Y-91692000D01*
X59628000Y-91692000D02*
X59628000Y-91192000D01*
X59628000Y-92292000D02*
X59078000Y-92292000D01*
X59628000Y-92292000D02*
X59228000Y-91692000D01*
X59628000Y-92292000D02*
X60178000Y-92292000D01*
X59628000Y-92692000D02*
X59628000Y-92292000D01*
X60028000Y-91692000D02*
X59628000Y-92292000D01*
%TO.C,D8*%
X78228000Y-72692000D02*
X79028000Y-72692000D01*
X78628000Y-72692000D02*
X78628000Y-72192000D01*
X78628000Y-73292000D02*
X78078000Y-73292000D01*
X78628000Y-73292000D02*
X78228000Y-72692000D01*
X78628000Y-73292000D02*
X79178000Y-73292000D01*
X78628000Y-73692000D02*
X78628000Y-73292000D01*
X79028000Y-72692000D02*
X78628000Y-73292000D01*
%TO.C,D10*%
X97228000Y-91692000D02*
X98028000Y-91692000D01*
X97628000Y-91692000D02*
X97628000Y-91192000D01*
X97628000Y-92292000D02*
X97078000Y-92292000D01*
X97628000Y-92292000D02*
X97228000Y-91692000D01*
X97628000Y-92292000D02*
X98178000Y-92292000D01*
X97628000Y-92692000D02*
X97628000Y-92292000D01*
X98028000Y-91692000D02*
X97628000Y-92292000D01*
%TO.C,D6*%
X59228000Y-53692000D02*
X60028000Y-53692000D01*
X59628000Y-53692000D02*
X59628000Y-53192000D01*
X59628000Y-54292000D02*
X59078000Y-54292000D01*
X59628000Y-54292000D02*
X59228000Y-53692000D01*
X59628000Y-54292000D02*
X60178000Y-54292000D01*
X59628000Y-54692000D02*
X59628000Y-54292000D01*
X60028000Y-53692000D02*
X59628000Y-54292000D01*
%TO.C,D7*%
X78228000Y-91692000D02*
X79028000Y-91692000D01*
X78628000Y-91692000D02*
X78628000Y-91192000D01*
X78628000Y-92292000D02*
X78078000Y-92292000D01*
X78628000Y-92292000D02*
X78228000Y-91692000D01*
X78628000Y-92292000D02*
X79178000Y-92292000D01*
X78628000Y-92692000D02*
X78628000Y-92292000D01*
X79028000Y-91692000D02*
X78628000Y-92292000D01*
%TO.C,D9*%
X78228000Y-53692000D02*
X79028000Y-53692000D01*
X78628000Y-53692000D02*
X78628000Y-53192000D01*
X78628000Y-54292000D02*
X78078000Y-54292000D01*
X78628000Y-54292000D02*
X78228000Y-53692000D01*
X78628000Y-54292000D02*
X79178000Y-54292000D01*
X78628000Y-54692000D02*
X78628000Y-54292000D01*
X79028000Y-53692000D02*
X78628000Y-54292000D01*
%TO.C,D1*%
X40228000Y-91692000D02*
X41028000Y-91692000D01*
X40628000Y-91692000D02*
X40628000Y-91192000D01*
X40628000Y-92292000D02*
X40078000Y-92292000D01*
X40628000Y-92292000D02*
X40228000Y-91692000D01*
X40628000Y-92292000D02*
X41178000Y-92292000D01*
X40628000Y-92692000D02*
X40628000Y-92292000D01*
X41028000Y-91692000D02*
X40628000Y-92292000D01*
%TO.C,D11*%
X96755000Y-70692000D02*
X97555000Y-70692000D01*
X97155000Y-70692000D02*
X97155000Y-70192000D01*
X97155000Y-71292000D02*
X96605000Y-71292000D01*
X97155000Y-71292000D02*
X96755000Y-70692000D01*
X97155000Y-71292000D02*
X97705000Y-71292000D01*
X97155000Y-71692000D02*
X97155000Y-71292000D01*
X97555000Y-70692000D02*
X97155000Y-71292000D01*
%TO.C,D3*%
X40228000Y-53692000D02*
X41028000Y-53692000D01*
X40628000Y-53692000D02*
X40628000Y-53192000D01*
X40628000Y-54292000D02*
X40078000Y-54292000D01*
X40628000Y-54292000D02*
X40228000Y-53692000D01*
X40628000Y-54292000D02*
X41178000Y-54292000D01*
X40628000Y-54692000D02*
X40628000Y-54292000D01*
X41028000Y-53692000D02*
X40628000Y-54292000D01*
%TO.C,D12*%
X96755000Y-51692000D02*
X97555000Y-51692000D01*
X97155000Y-51692000D02*
X97155000Y-51192000D01*
X97155000Y-52292000D02*
X96605000Y-52292000D01*
X97155000Y-52292000D02*
X96755000Y-51692000D01*
X97155000Y-52292000D02*
X97705000Y-52292000D01*
X97155000Y-52692000D02*
X97155000Y-52292000D01*
X97555000Y-51692000D02*
X97155000Y-52292000D01*
%TO.C,D2*%
X40228000Y-72692000D02*
X41028000Y-72692000D01*
X40628000Y-72692000D02*
X40628000Y-72192000D01*
X40628000Y-73292000D02*
X40078000Y-73292000D01*
X40628000Y-73292000D02*
X40228000Y-72692000D01*
X40628000Y-73292000D02*
X41178000Y-73292000D01*
X40628000Y-73692000D02*
X40628000Y-73292000D01*
X41028000Y-72692000D02*
X40628000Y-73292000D01*
%TD*%
M02*
